<svg width="63" height="47" viewBox="0 0 63 47" fill="none" xmlns="http://www.w3.org/2000/svg">
<path d="M39.5255 43.656C39.6587 44.0372 39.8907 44.3757 40.1974 44.6368C39.8974 44.3697 39.6667 44.033 39.5255 43.656ZM39.5255 43.656C39.6587 44.0372 39.8907 44.3757 40.1974 44.6368C39.8974 44.3697 39.6667 44.033 39.5255 43.656ZM59.9112 26.3703C57.8521 24.2246 54.384 22.7868 49.5287 22.1333V22.0898C53.0076 21.0114 55.5545 19.4103 57.1585 17.3735C58.7625 15.3366 59.5645 13.0494 59.5645 10.5005C59.5645 8.43105 59.0334 6.60117 57.9825 5.04363C56.931 3.47525 55.3632 2.25536 53.2791 1.38397C51.1977 0.512645 48.64 0.06604 45.638 0.06604C45.3453 0.06604 44.9552 0.06604 44.4674 0.0769832V1.32956C47.3828 1.43848 49.6912 2.25539 51.0568 3.78031C52.5199 5.41415 53.246 7.88658 53.246 11.2196C53.246 14.4981 52.5269 17.123 51.0888 19.0945C49.6474 21.066 47.1331 22.0499 43.5458 22.0463H39.1136V23.1791H44.6409C48.7268 23.1791 51.7107 24.0868 53.5929 25.9021C55.4787 27.721 56.4107 30.3678 56.4107 33.8424C56.4107 41.5646 52.3357 45.4421 44.1857 45.4751H44.2724L44.6408 46.9564L44.4457 46.9456L44.6299 46.9564C45.7354 46.9782 46.5699 47 47.1335 47C50.3848 47 53.2026 46.4554 55.5869 45.3662C57.9712 44.2769 59.8137 42.7629 61.0817 40.8134C62.3605 38.8637 62.9999 36.6381 62.9999 34.1365C63.0108 31.1084 61.9704 28.5161 59.9112 26.3703ZM39.5255 43.656C39.6587 44.0372 39.8907 44.3757 40.1974 44.6368C39.8974 44.3697 39.6667 44.033 39.5255 43.656ZM39.5255 43.656C39.6587 44.0372 39.8907 44.3757 40.1974 44.6368C39.8974 44.3697 39.6667 44.033 39.5255 43.656Z" fill="#4F4F4F"/>
<path d="M44.6301 46.9556L44.4458 46.9448H44.3916C42.4408 46.8795 39.6554 46.8032 36.0031 46.8032C32.4809 46.8032 29.6847 46.8685 27.6147 46.9993V45.6703C29.2079 45.605 30.3567 45.4307 31.0828 45.1475C31.4306 45.0163 31.7446 44.8082 32.0016 44.5386C32.2586 44.269 32.452 43.9448 32.5676 43.59C32.8386 42.8384 32.9682 41.6294 32.9682 39.963V23.1674H11.4884V39.9632C11.4884 41.6296 11.6184 42.8386 11.889 43.5902C12.0028 43.9459 12.1956 44.271 12.4528 44.5408C12.7101 44.8107 13.025 45.0182 13.3737 45.1478C14.0999 45.4309 15.2486 45.6052 16.8418 45.6705V46.9994C14.8152 46.8686 12.0191 46.8033 8.45343 46.8033C4.67106 46.8033 1.85325 46.8686 0 46.9994L0 45.6703C1.59312 45.605 2.74197 45.4307 3.46811 45.1475C3.81687 45.018 4.13177 44.8105 4.38899 44.5406C4.64621 44.2708 4.83903 43.9457 4.95286 43.59C5.22384 42.8384 5.35348 41.6294 5.35348 39.2006L5.35348 6.27384C5.35348 5.36979 5.22343 4.16077 4.95286 3.39837C4.84098 3.04463 4.65002 2.72133 4.3946 2.45323C4.13918 2.18513 3.82609 1.97935 3.47931 1.85166C2.75337 1.56848 1.60442 1.3937 0.0112995 1.32887L0.0112995 0C1.84284 0.130767 4.66065 0.196151 8.46473 0.196151C12.0304 0.196151 14.8265 0.130767 16.8531 0V1.32887C15.26 1.39422 14.1112 1.56848 13.385 1.85166C13.0372 1.98291 12.7233 2.19101 12.4663 2.4606C12.2093 2.7302 12.0158 3.05438 11.9003 3.40921C11.6293 4.17161 11.4885 5.38104 11.4885 7.03624L11.4885 22.0019H32.9578V7.03624C32.9578 5.36979 32.8278 4.16077 32.5572 3.40921C32.44 3.05526 32.246 2.73192 31.9892 2.46255C31.7324 2.19319 31.4193 1.98453 31.0725 1.85166C30.3463 1.56848 29.1976 1.39422 27.6044 1.32887V0C29.6635 0.130767 32.4597 0.196151 35.9928 0.196151C39.7751 0.196151 42.4521 0.109019 44.4462 0.0762924V1.32887C42.8531 1.39422 41.7042 1.56848 40.9781 1.85166C40.6303 1.98287 40.3162 2.19096 40.0592 2.46055C39.8021 2.73014 39.6086 3.05435 39.493 3.40921C39.2221 4.17161 39.0924 5.38104 39.0924 7.03624V39.9632C39.0924 41.6296 39.2225 42.8386 39.493 43.5902C39.5039 43.612 39.5039 43.6338 39.5147 43.6556C39.648 44.0367 39.8799 44.3752 40.1866 44.6363C40.2055 44.6576 40.2274 44.676 40.2516 44.6908C40.4366 44.8438 40.6453 44.9652 40.8694 45.0503C41.3355 45.2464 41.9749 45.3662 42.7769 45.4315L42.9395 45.4424L43.1129 45.4533H43.1238C43.1997 45.4533 43.2647 45.4642 43.3405 45.4642C43.4489 45.4642 43.5681 45.4751 43.6873 45.4751H44.2291L44.6301 46.9556Z" fill="#4F4F4F"/>
</svg>
